<svg viewBox="0 0 165 165" fill="none" xmlns="http://www.w3.org/2000/svg">
  <path d="M5.17638 54.2591C2.31754 43.5898 8.64919 32.623 19.3185 29.7642L38.637 24.5878L48.9898 63.2249L10.3528 73.5776L5.17638 54.2591Z" stroke="currentColor" stroke-width="10"/>
  <rect x="10.3528" y="73.5776" width="40" height="55" transform="rotate(-15 10.3528 73.5776)" stroke="currentColor" stroke-width="10"/>
  <path d="M24.5878 126.704L63.2248 116.351L73.5776 154.988L54.2591 160.164C43.5898 163.023 32.623 156.691 29.7642 146.022L24.5878 126.704Z" stroke="currentColor" stroke-width="10"/>
  <rect x="38.637" y="24.5878" width="55" height="40" transform="rotate(-15 38.637 24.5878)" stroke="currentColor" stroke-width="10"/>
  <rect x="48.9898" y="63.2249" width="55" height="55" transform="rotate(-15 48.9898 63.2249)" fill="currentColor" stroke="currentColor" stroke-width="10"/>
  <rect x="63.2248" y="116.351" width="55" height="40" transform="rotate(-15 63.2248 116.351)" stroke="currentColor" stroke-width="10"/>
  <path d="M91.763 10.3528L111.081 5.1764C121.751 2.31757 132.718 8.64922 135.576 19.3185L140.753 38.6371L102.116 48.9898L91.763 10.3528Z" stroke="currentColor" stroke-width="10"/>
  <rect x="102.116" y="48.9898" width="40" height="55" transform="rotate(-15 102.116 48.9898)" stroke="currentColor" stroke-width="10"/>
  <path d="M116.351 102.116L154.988 91.763L160.164 111.081C163.023 121.751 156.691 132.718 146.022 135.576L126.704 140.753L116.351 102.116Z" stroke="currentColor" stroke-width="10"/>
</svg>
